<svg width="73" height="40" viewBox="0 0 73 40" fill="none" xmlns="http://www.w3.org/2000/svg">
<path d="M51.542 25.6121C50.5327 25.8434 47.8762 25.9766 47.8762 25.9766L47.5397 27.028C47.5397 27.028 48.8645 26.9158 49.8318 27.0139C49.8318 27.0139 50.1472 26.9789 50.1822 27.3714C50.1963 27.7359 50.1542 28.1284 50.1542 28.1284C50.1542 28.1284 50.1332 28.3667 49.7967 28.4228C49.4322 28.4859 46.9369 28.577 46.9369 28.577L46.5304 29.9438C46.5304 29.9438 46.3832 30.2593 46.7196 30.1681C47.035 30.084 49.6495 29.5934 49.993 29.6635C50.3575 29.7546 50.764 30.2382 50.6449 30.6868C50.5047 31.2336 47.8972 32.9018 46.3061 32.7826C46.3061 32.7826 45.472 32.8387 44.764 31.7102C44.1051 30.6378 45.0164 28.5981 45.0164 28.5981C45.0164 28.5981 44.6028 27.6448 44.9042 27.3294C44.9042 27.3294 45.0865 27.1682 45.6051 27.1261L46.243 25.8013C46.243 25.8013 45.514 25.8504 45.0794 25.3177C44.6729 24.806 44.6449 24.5747 44.9533 24.4345C45.2827 24.2733 48.3178 23.7196 50.4065 23.7897C50.4065 23.7897 51.1355 23.7196 51.7593 24.9812C51.7523 24.9812 52.0607 25.4929 51.542 25.6121ZM43.6846 30.7009C43.4182 31.3317 42.7103 32.0046 41.8341 31.584C40.965 31.1635 39.5841 28.3387 39.5841 28.3387C39.5841 28.3387 39.0584 27.2873 38.9603 27.3083C38.9603 27.3083 38.8482 27.1051 38.7781 28.2546C38.708 29.4041 38.7921 31.6401 38.3365 31.9906C37.9019 32.341 37.3762 32.2009 37.1028 31.7873C36.8575 31.3808 36.7524 30.4135 36.8855 28.7172C37.0468 27.021 37.4393 25.2126 37.9439 24.6448C38.4486 24.084 38.8552 24.4906 39.0094 24.6378C39.0094 24.6378 39.6823 25.2476 40.7967 27.042L40.993 27.3714C40.993 27.3714 42.0024 29.0677 42.1075 29.0607C42.1075 29.0607 42.1916 29.1378 42.2617 29.0817C42.3668 29.0537 42.3248 28.5069 42.3248 28.5069C42.3248 28.5069 42.1145 26.6635 41.1963 23.5373C41.1963 23.5373 41.0561 23.1448 41.1542 22.7803C41.2453 22.4088 41.6168 22.5841 41.6168 22.5841C41.6168 22.5841 43.0467 23.299 43.7337 25.6261C44.4136 27.9742 43.9509 30.07 43.6846 30.7009ZM36.6612 24.7219C36.5421 24.9602 36.472 25.3037 35.8692 25.3948C35.8692 25.3948 30.1005 25.7873 29.8271 26.1939C29.8271 26.1939 29.6239 26.4322 29.9393 26.5023C30.2547 26.5654 31.5585 26.7406 32.1893 26.7756C32.8622 26.7826 35.1332 26.8037 35.9463 27.82C35.9463 27.82 36.4299 28.3037 36.4089 29.3971C36.3879 30.5186 36.1916 30.9111 35.757 31.3177C35.3014 31.6962 31.3902 33.4485 28.8669 30.7569C28.8669 30.7569 27.7033 29.4602 29.2664 28.4789C29.2664 28.4789 30.3949 27.799 33.2617 28.5981C33.2617 28.5981 34.1309 28.9135 34.0888 29.2289C34.0398 29.5653 33.3739 29.9228 32.4066 29.9018C31.4673 29.8738 30.7804 29.4252 30.9136 29.4953C31.0398 29.5443 29.9043 28.9485 29.5538 29.3551C29.2033 29.7266 29.2874 29.9579 29.6309 30.1892C30.5071 30.6868 33.8926 30.5116 34.9019 29.3901C34.9019 29.3901 35.3014 28.9345 34.6916 28.563C34.0818 28.2125 32.3365 28.0023 31.6566 27.9672C31.0047 27.9322 28.5795 27.9742 28.229 27.3294C28.229 27.3294 27.8786 26.8948 28.2641 25.6611C28.6706 24.3714 31.4954 23.8738 32.715 23.7616C32.715 23.7616 36.0725 23.6425 36.6893 24.3294C36.6823 24.3294 36.7664 24.4906 36.6612 24.7219ZM27.1286 32.285C26.722 32.5864 25.8599 32.4532 25.6145 32.1167C25.3692 31.8153 25.2851 30.6167 25.3342 28.7382C25.3832 26.8387 25.4253 24.4836 25.8318 24.1121C26.2664 23.7336 26.5328 24.063 26.701 24.3224C26.8832 24.5747 27.1005 24.8551 27.1496 25.4509C27.1916 26.0467 27.3318 29.1728 27.3318 29.1728C27.3318 29.1728 27.5141 31.9906 27.1286 32.285ZM28.0047 22.2056C26.8201 22.5981 26.0071 22.4649 25.3201 22.1705C25.0187 22.6962 24.8435 22.8574 24.6122 22.8925C24.2758 22.9275 23.9744 22.3878 23.9183 22.2126C23.8622 22.0794 23.701 21.8551 23.8973 21.3224C23.2244 20.7196 23.1753 19.9065 23.2874 19.3598C23.4557 18.7289 24.5912 16.3317 28.0468 16.0514C28.0468 16.0514 29.736 15.9252 30.0234 16.8294H30.0725C30.0725 16.8294 31.7127 16.8364 31.6776 18.2943C31.6566 19.7593 29.8552 21.5817 28.0047 22.2056ZM24.7804 18.9602C24.43 19.521 24.4159 19.8574 24.5772 20.0887C24.9767 19.4789 25.7057 18.5186 26.7781 17.7897C25.951 17.8598 25.2571 18.2172 24.7804 18.9602ZM29.5538 18.021C28.4673 18.1822 26.7851 19.6401 25.986 20.8317C27.2127 21.056 29.3785 20.9719 30.3388 19.0163C30.3318 19.0163 30.7944 17.8037 29.5538 18.021ZM59.049 29.313C58.3972 30.4485 56.5677 32.8177 54.1285 32.2639C53.3224 34.2195 52.6495 36.1892 52.264 39.1471C52.264 39.1471 52.1799 39.7219 51.7033 39.5186C51.2336 39.3504 50.4486 38.5653 50.2944 37.4789C50.1262 36.049 50.764 33.6308 52.0607 30.8621C51.6822 30.2452 51.4229 29.3621 51.6472 28.1074C51.6472 28.1074 51.9766 25.7803 54.3107 23.6775C54.3107 23.6775 54.5911 23.4322 54.7523 23.5093C54.9346 23.5864 54.8505 24.3434 54.7033 24.7079C54.5561 25.0724 53.5117 26.8808 53.5117 26.8808C53.5117 26.8808 52.8598 28.1004 53.042 29.0607C54.2687 27.1752 57.0584 23.3691 58.7897 24.5677C59.3715 24.9812 59.6378 25.8854 59.6378 26.8597C59.6308 27.7219 59.4275 28.6331 59.049 29.313ZM58.5444 26.327C58.5444 26.327 58.4462 25.577 57.7173 26.4041C57.0864 27.0981 55.9509 28.4088 55.0327 30.1822C55.993 30.077 56.9182 29.5513 57.1986 29.285C57.6542 28.8784 58.7126 27.785 58.5444 26.327ZM24.5141 27.2803C24.3809 28.9766 23.729 31.8294 19.1099 33.2382C16.0608 34.1565 13.18 33.7149 11.6099 33.3153C11.5749 33.9392 11.5048 34.2055 11.4066 34.3107C11.2735 34.4438 10.2781 35.0186 9.7314 34.2055C9.48608 33.82 9.35991 33.1191 9.28982 32.4952C5.75711 30.8691 4.13095 28.528 4.06787 28.4228C3.99076 28.3457 3.18469 27.5046 3.99076 26.4742C4.74777 25.542 7.22206 24.6097 9.45103 24.2312C9.52813 22.3247 9.75243 20.8878 10.0188 20.2289C10.3412 19.4649 10.7478 20.1518 11.0982 20.6705C11.3926 21.056 11.5678 22.7172 11.5819 24.042C13.0398 23.9719 13.902 24.077 15.5281 24.3714C17.6449 24.7569 19.0608 25.8364 18.9347 27.063C18.8435 28.2686 17.7361 28.7663 17.3155 28.8013C16.8739 28.8364 16.187 28.521 16.187 28.521C15.7174 28.2967 16.1519 28.1004 16.7197 27.8551C17.3365 27.5537 17.1963 27.2453 17.1963 27.2453C16.965 26.5724 14.2174 26.1027 11.4837 26.1027C11.4697 27.6097 11.5468 30.1121 11.5819 31.57C13.4954 31.9345 14.9253 31.8644 14.9253 31.8644C14.9253 31.8644 21.9066 31.6681 22.1169 27.2102C22.3342 22.7453 15.1566 18.4626 9.85056 17.1028C4.55151 15.7149 1.55152 16.6822 1.29217 16.8154C1.0118 16.9556 1.27114 16.9976 1.27114 16.9976C1.27114 16.9976 1.55853 17.0397 2.05619 17.2079C2.58189 17.3761 2.17535 17.6495 2.17535 17.6495C1.27114 17.9369 0.254791 17.7546 0.0585303 17.3411C-0.137731 16.9275 0.191708 16.556 0.570211 16.0233C0.948715 15.4626 1.36227 15.4836 1.36227 15.4836C7.91599 13.2126 15.8996 17.32 15.8996 17.32C23.3786 21.1121 24.6543 25.556 24.5141 27.2803ZM4.73375 27.049C3.99076 27.4135 4.50244 27.9392 4.50244 27.9392C5.8973 29.4392 7.61459 30.3784 9.24776 30.9602C9.43701 28.3738 9.40897 27.4625 9.43 26.1588C6.87861 26.334 5.40665 26.7406 4.73375 27.049Z" fill="white"/>
<path d="M72.9279 26.5163V27.4415C72.9279 27.6448 72.7666 27.806 72.5634 27.806H68.1545C68.1545 28.0373 68.1615 28.2406 68.1615 28.4298C68.1615 29.7967 68.1054 30.9111 67.9723 32.1658C67.9512 32.3551 67.797 32.4952 67.6148 32.4952H66.6615C66.5634 32.4952 66.4723 32.4532 66.4092 32.3831C66.3461 32.313 66.3111 32.2149 66.3251 32.1167C66.4583 30.8691 66.5213 29.7686 66.5213 28.4298C66.5213 28.2336 66.5213 28.0303 66.5143 27.806H62.1545C61.9513 27.806 61.79 27.6448 61.79 27.4415V26.5163C61.79 26.313 61.9513 26.1518 62.1545 26.1518H66.4512C66.3601 24.6448 66.1779 23.1939 65.8835 21.7219C65.8695 21.6308 65.8905 21.5397 65.9466 21.4696C66.0026 21.3995 66.0868 21.3574 66.1779 21.3574H67.2082C67.3695 21.3574 67.5026 21.4696 67.5377 21.6308C67.8251 23.1518 68.0073 24.6308 68.0984 26.1518H72.5634C72.7596 26.1518 72.9279 26.32 72.9279 26.5163Z" fill="white"/>
<path d="M66.928 19.1775C64.65 13.5771 60.8019 8.80372 55.7972 5.36914C50.6734 1.85747 44.6664 0 38.4281 0C28.1104 0 18.5356 5.12382 12.823 13.7102C12.76 13.8014 12.7459 13.9205 12.781 14.0257C12.816 14.1378 12.9001 14.2149 13.0053 14.25L13.8043 14.5233C13.8534 14.5373 13.9025 14.5444 13.9445 14.5444C14.0917 14.5444 14.2319 14.4673 14.316 14.3481C16.9375 10.493 20.4842 7.2897 24.5777 5.07475C28.8043 2.78971 33.5917 1.5771 38.4211 1.5771C44.2599 1.5771 49.8884 3.30139 54.7108 6.55372C59.414 9.72895 63.0659 14.1659 65.2738 19.3738C65.3369 19.528 65.4911 19.6331 65.6594 19.6331H66.6126C66.7248 19.6331 66.8299 19.5771 66.886 19.4859C66.9561 19.3948 66.9701 19.2827 66.928 19.1775ZM13.9445 14.306H13.9585C13.9585 14.306 13.9515 14.306 13.9445 14.306ZM65.4631 19.507C65.4841 19.521 65.5051 19.535 65.5262 19.542C65.5051 19.528 65.4841 19.521 65.4631 19.507Z" fill="white"/>
</svg>
