<svg width="441" height="179" viewBox="0 0 441 179" fill="none" xmlns="http://www.w3.org/2000/svg">
<path d="M0 2.67999H45.63V178.33H0V2.67999Z" fill="black"/>
<path d="M131.85 83.59C127.93 56.82 125.75 41.94 125.32 38.97C123.41 24.64 121.59 12.17 119.85 1.53C115.9 1.53 96.1901 1.53 60.6901 1.53V177.18H100.66L100.8 61.2L117.62 177.18H146.09L162.04 58.62L162.19 177.18H202.03V1.53H142.42L131.85 83.59Z" fill="black"/>
<path d="M277.36 38.07C277.86 40.31 278.12 45.39 278.12 53.33C278.12 60.14 278.12 114.62 278.12 121.43C278.12 133.12 277.36 140.28 275.85 142.92C274.33 145.56 270.29 146.87 263.74 146.87C263.74 135.34 263.74 43.1 263.74 31.57C268.71 31.57 272.1 32.1 273.9 33.14C275.7 34.19 276.86 35.83 277.36 38.07ZM297.97 175.39C303.4 174.2 307.96 172.1 311.66 169.11C315.35 166.11 317.94 161.96 319.42 156.65C320.91 151.35 321.79 140.82 321.79 125.07C321.79 118.91 321.79 69.56 321.79 63.39C321.79 46.77 321.14 35.63 320.13 29.97C319.11 24.3 316.58 19.15 312.53 14.53C308.47 9.91 302.55 6.59 294.77 4.57C286.98 2.55 274.28 1.53 252.19 1.53C249.92 1.53 238.58 1.53 218.15 1.53V177.18H273.43C286.17 176.78 294.35 176.19 297.97 175.39Z" fill="black"/>
<path d="M395.41 149.14C394.57 151.37 390.89 152.5 388.11 152.5C385.39 152.5 383.58 151.42 382.66 149.25C381.74 147.09 381.29 142.16 381.29 134.44C381.29 129.8 381.29 92.66 381.29 88.02C381.29 80.02 381.69 75.03 382.5 73.04C383.3 71.07 385.06 70.07 387.78 70.07C390.56 70.07 394.29 71.2 395.25 73.47C396.2 75.74 396.68 80.59 396.68 88.02C396.68 91.02 396.68 106.02 396.68 133.03C396.39 142.28 395.97 147.65 395.41 149.14ZM337.33 175.65H378.41C380.12 168.94 381.06 165.21 381.25 164.46C384.97 168.96 389.06 172.34 393.55 174.58C398.02 176.83 404.71 177.95 409.89 177.95C417.1 177.95 423.32 176.06 428.57 172.27C433.81 168.49 437.15 164.01 438.57 158.86C439.99 153.7 440.7 145.86 440.7 135.32C440.7 130.39 440.7 90.97 440.7 86.04C440.7 75.44 440.46 68.52 439.99 65.27C439.52 62.02 438.12 58.71 435.79 55.32C433.46 51.93 430.07 49.3 425.63 47.42C421.19 45.54 415.95 44.6 409.91 44.6C404.66 44.6 397.94 45.65 393.46 47.72C388.99 49.79 384.93 52.93 381.29 57.14C381.29 53.33 381.29 34.29 381.29 0H337.33V175.65Z" fill="black"/>
</svg>
