<svg width="262" height="97" viewBox="0 0 262 97" fill="none" xmlns="http://www.w3.org/2000/svg">
<path d="M213.427 97C240.253 97 262 75.2858 262 48.5C262 21.7142 240.253 0 213.427 0C186.601 0 164.854 21.7142 164.854 48.5C164.854 75.2858 186.601 97 213.427 97Z" fill="#40BCF4"/>
<path d="M131 97C157.826 97 179.573 75.2858 179.573 48.5C179.573 21.7142 157.826 0 131 0C104.174 0 82.4268 21.7142 82.4268 48.5C82.4268 75.2858 104.174 97 131 97Z" fill="#00E054"/>
<path d="M48.573 97C75.3992 97 97.1461 75.2858 97.1461 48.5C97.1461 21.7142 75.3992 0 48.573 0C21.7469 0 0 21.7142 0 48.5C0 75.2858 21.7469 97 48.573 97Z" fill="#FF8000"/>
<path fill-rule="evenodd" clip-rule="evenodd" d="M89.7863 74.1794C85.1224 66.7325 82.4268 57.9306 82.4268 48.5C82.4268 39.0694 85.1224 30.2675 89.7863 22.8206C94.4502 30.2675 97.1459 39.0694 97.1459 48.5C97.1459 57.9306 94.4502 66.7325 89.7863 74.1794Z" fill="white"/>
<path fill-rule="evenodd" clip-rule="evenodd" d="M172.214 22.8206C176.877 30.2675 179.573 39.0694 179.573 48.5C179.573 57.9306 176.877 66.7325 172.214 74.1794C167.55 66.7325 164.854 57.9306 164.854 48.5C164.854 39.0694 167.55 30.2675 172.214 22.8206Z" fill="white"/>
</svg>
